<?xml version="1.0" encoding="utf-8"?>
<svg viewBox="0 0 500 500" xmlns="http://www.w3.org/2000/svg">
  <g id="freepik--Floor--inject-5">
    <ellipse id="freepik--floor--inject-5" cx="250" cy="333.49" rx="236" ry="136.23" style="fill:#f5f5f5"/>
  </g>
  <g id="freepik--Shadow--inject-5">
    <path id="freepik--shadow--inject-5" d="M41.12,306.5,298.56,455.13a11.08,11.08,0,0,0,10,0L448.7,374.22c2.76-1.6,2.76-4.18,0-5.78L191.26,219.81a11.08,11.08,0,0,0-10,0L41.12,300.72C38.35,302.32,38.35,304.9,41.12,306.5Z" style="fill:#e0e0e0"/>
  </g>
  <g id="freepik--Plant--inject-5">
    <g id="freepik--Plants--inject-5">
      <path d="M60.46,290.43l10.36-4.67s4.52-20.73,4.57-37.13c.06-23-11.9-52-30.14-47.33s5.06,30.5,8.81,50.44S60.46,290.43,60.46,290.43Z" style="fill:#BA68C8"/>
      <path d="M60.46,290.43l10.36-4.67s4.52-20.73,4.57-37.13c.06-23-11.9-52-30.14-47.33s5.06,30.5,8.81,50.44S60.46,290.43,60.46,290.43Z" style="opacity:0.15"/>
      <path d="M65.85,288.57h0a.59.59,0,0,1-.51-.67c6.85-50.54-15.82-78.6-16-78.88a.59.59,0,0,1,.08-.84.6.6,0,0,1,.84.08c.23.28,23.23,28.75,16.31,79.8A.6.6,0,0,1,65.85,288.57Z" style="fill:#fff"/>
      <path d="M54,293.33,61.32,290s2.64-14.27-2.65-32.47c-4.6-15.84-18.57-30-26.5-28.13s-8.3,7.34-5.13,13.42S51.56,264.79,54,293.33Z" style="fill:#BA68C8"/>
      <path d="M54,293.33,61.32,290s2.64-14.27-2.65-32.47c-4.6-15.84-18.57-30-26.5-28.13s-8.3,7.34-5.13,13.42S51.56,264.79,54,293.33Z" style="fill:#fff;opacity:0.2"/>
      <path d="M57.78,292.17h0a.6.6,0,0,1-.53-.65c3.38-32.06-24.54-56.77-24.82-57a.59.59,0,1,1,.78-.89c.29.25,28.67,25.37,25.23,58A.6.6,0,0,1,57.78,292.17Z" style="fill:#fff"/>
    </g>
  </g>
  <g id="freepik--Envelopes--inject-5">
    <g id="freepik--Mails--inject-5">
      <g id="freepik--Letter--inject-5">
        <path d="M229.33,173.21l42-24.25a.86.86,0,0,1,1.05,0c.25.2,2.62,1.45,2.88,1.64a1.34,1.34,0,0,1,.44,1.13v37.8a3.47,3.47,0,0,1-1.45,2.77l-7.37,4.26-38.55-22.25A2.82,2.82,0,0,1,229.33,173.21Z" style="fill:#BA68C8"/>
        <path d="M229.33,173.21l42-24.25a.86.86,0,0,1,1.05,0c.25.2,2.62,1.45,2.88,1.64a1.34,1.34,0,0,1,.44,1.13v37.8a3.47,3.47,0,0,1-1.45,2.77l-7.37,4.26-38.55-22.25A2.82,2.82,0,0,1,229.33,173.21Z" style="fill:#fff;opacity:0.5"/>
        <path d="M231.28,216.61c-.29-.19-2.68-1.51-2.94-1.69a1.33,1.33,0,0,1-.46-1.14V176a3.58,3.58,0,0,1,.46-1.67l38.55,22.25-34.63,20A.9.9,0,0,1,231.28,216.61Z" style="fill:#BA68C8"/>
        <path d="M231.28,216.61c-.29-.19-2.68-1.51-2.94-1.69a1.33,1.33,0,0,1-.46-1.14V176a3.58,3.58,0,0,1,.46-1.67l38.55,22.25-34.63,20A.9.9,0,0,1,231.28,216.61Z" style="opacity:0.2"/>
        <path d="M232.26,216.55l42-24.25a3.47,3.47,0,0,0,1.45-2.77v-37.8c0-1.06-.65-1.55-1.45-1.09l-42,24.25a3.47,3.47,0,0,0-1.45,2.77v37.8C230.81,216.52,231.46,217,232.26,216.55Z" style="fill:#BA68C8"/>
        <path d="M230.81,215.46v-.75l17.37-28.78L231,176.43l.13-.31L252.52,185c.45.18,1-.15,1.49-.86l21.33-33.52a1,1,0,0,1,.13.15l-17.12,29.26,17.36,8.73v.74a3.87,3.87,0,0,1-.43,1.71l-17.81-9.67-2.53,4.31c-1,1.71-2.36,2.5-3.36,1.94l-2.52-1.4-17.78,30.19A1.35,1.35,0,0,1,230.81,215.46Z" style="opacity:0.2"/>
      </g>
      <g id="freepik--letter--inject-5">
        <path d="M239.76,179.34l42-24.25a.89.89,0,0,1,1.06,0c.24.21,2.62,1.46,2.88,1.64a1.36,1.36,0,0,1,.44,1.14v37.8a3.5,3.5,0,0,1-1.45,2.77l-7.38,4.25-38.54-22.25A2.88,2.88,0,0,1,239.76,179.34Z" style="fill:#BA68C8"/>
        <path d="M239.76,179.34l42-24.25a.89.89,0,0,1,1.06,0c.24.21,2.62,1.46,2.88,1.64a1.36,1.36,0,0,1,.44,1.14v37.8a3.5,3.5,0,0,1-1.45,2.77l-7.38,4.25-38.54-22.25A2.88,2.88,0,0,1,239.76,179.34Z" style="fill:#fff;opacity:0.5"/>
        <path d="M241.7,222.74c-.28-.18-2.67-1.51-2.93-1.68a1.34,1.34,0,0,1-.46-1.15v-37.8a3.65,3.65,0,0,1,.46-1.67l38.54,22.25-34.62,20A.92.92,0,0,1,241.7,222.74Z" style="fill:#BA68C8"/>
        <path d="M241.7,222.74c-.28-.18-2.67-1.51-2.93-1.68a1.34,1.34,0,0,1-.46-1.15v-37.8a3.65,3.65,0,0,1,.46-1.67l38.54,22.25-34.62,20A.92.92,0,0,1,241.7,222.74Z" style="opacity:0.2"/>
        <path d="M242.69,222.69l42-24.25a3.5,3.5,0,0,0,1.45-2.77v-37.8c0-1.07-.65-1.56-1.45-1.1l-42,24.25a3.5,3.5,0,0,0-1.45,2.77v37.8C241.24,222.66,241.89,223.15,242.69,222.69Z" style="fill:#BA68C8"/>
        <path d="M241.24,221.59v-.74l17.36-28.78-17.14-9.5a2.88,2.88,0,0,1,.13-.31l21.35,8.9c.46.19,1-.15,1.49-.86l21.33-33.51a.58.58,0,0,1,.13.14L268.78,186.2l17.36,8.72v.75a3.7,3.7,0,0,1-.44,1.7l-17.81-9.67L265.37,192c-1,1.71-2.36,2.5-3.36,2l-2.53-1.4L241.7,222.74A1.38,1.38,0,0,1,241.24,221.59Z" style="opacity:0.2"/>
      </g>
      <g id="freepik--letter--inject-5">
        <path d="M250.18,185.48l42-24.25a.88.88,0,0,1,1.06,0c.24.2,2.61,1.45,2.87,1.64a1.31,1.31,0,0,1,.44,1.13v37.8a3.44,3.44,0,0,1-1.45,2.77l-7.37,4.26-38.55-22.25A2.82,2.82,0,0,1,250.18,185.48Z" style="fill:#BA68C8"/>
        <path d="M250.18,185.48l42-24.25a.88.88,0,0,1,1.06,0c.24.2,2.61,1.45,2.87,1.64a1.31,1.31,0,0,1,.44,1.13v37.8a3.44,3.44,0,0,1-1.45,2.77l-7.37,4.26-38.55-22.25A2.82,2.82,0,0,1,250.18,185.48Z" style="fill:#fff;opacity:0.5"/>
        <path d="M252.13,228.88c-.29-.19-2.68-1.51-2.94-1.69a1.33,1.33,0,0,1-.46-1.14v-37.8a3.58,3.58,0,0,1,.46-1.67l38.55,22.25-34.63,20A.9.9,0,0,1,252.13,228.88Z" style="fill:#BA68C8"/>
        <path d="M252.13,228.88c-.29-.19-2.68-1.51-2.94-1.69a1.33,1.33,0,0,1-.46-1.14v-37.8a3.58,3.58,0,0,1,.46-1.67l38.55,22.25-34.63,20A.9.9,0,0,1,252.13,228.88Z" style="opacity:0.2"/>
        <path d="M253.11,228.82l42-24.25a3.44,3.44,0,0,0,1.45-2.77V164c0-1.06-.64-1.55-1.45-1.09l-42,24.25a3.47,3.47,0,0,0-1.45,2.77v37.8C251.66,228.79,252.31,229.28,253.11,228.82Z" style="fill:#BA68C8"/>
        <path d="M251.66,227.73V227L269,198.2l-17.15-9.5.13-.31,21.36,8.91c.45.18,1-.15,1.49-.86l21.33-33.52a1.79,1.79,0,0,1,.13.14L279.2,192.33l17.36,8.73v.74a3.9,3.9,0,0,1-.43,1.71l-17.81-9.67-2.52,4.31c-1,1.71-2.37,2.5-3.37,1.94l-2.52-1.4-17.78,30.19A1.35,1.35,0,0,1,251.66,227.73Z" style="opacity:0.2"/>
      </g>
    </g>
  </g>
  <g id="freepik--Device--inject-5">
    <g id="freepik--Mobile--inject-5">
      <g id="freepik--mobile--inject-5">
        <path d="M433.31,372.84,313.63,441.93a12.92,12.92,0,0,1-12.49.24L60.19,303c-3.8-2.19-6.88-7.09-6.88-11s3.08-8.75,6.87-10.95L179.43,212.3a15.25,15.25,0,0,1,13.74,0L433.31,351c3.8,2.19,6.88,7.09,6.88,10.95S437.11,370.65,433.31,372.84Z" style="fill:#BA68C8"/>
        <path d="M179.43,212.3,60.18,281.14c-3.79,2.2-6.87,7.1-6.87,10.95s3.08,8.76,6.88,11l241,139.13a13.48,13.48,0,0,0,6,1.48V278.09l-114-65.79A15.25,15.25,0,0,0,179.43,212.3Z" style="opacity:0.5"/>
        <path d="M313.63,441.93l119.68-69.09c3.8-2.19,6.88-7.09,6.88-10.94s-3.08-8.76-6.88-10.95L307.12,278.09V443.65A12.7,12.7,0,0,0,313.63,441.93Z" style="opacity:0.4"/>
        <path d="M310.78,429.62a13.41,13.41,0,0,1-12.12,0L60.16,291.92c-5.13-3-5.13-7.8,0-10.76L179.42,212.3a15.25,15.25,0,0,1,13.74,0L433.3,351c3.78,2.18,3.78,5.75,0,7.93Z" style="fill:#BA68C8"/>
        <path d="M310.78,429.62a13.41,13.41,0,0,1-12.12,0L60.16,291.92c-5.13-3-5.13-7.8,0-10.76L179.42,212.3a15.25,15.25,0,0,1,13.74,0L433.3,351c3.78,2.18,3.78,5.75,0,7.93Z" style="opacity:0.30000000000000004"/>
        <path d="M299.2,415.76a14.45,14.45,0,0,1-13.06,0L80.91,297.27c-3.61-2.08-3.61-5.46,0-7.54L193.1,225a14.51,14.51,0,0,1,13.06,0L411.39,343.45c3.59,2.07,3.59,5.47,0,7.54Z" style="fill:#37474f"/>
        <path d="M199.23,223.43A13.09,13.09,0,0,0,193.1,225L80.91,289.73c-3.61,2.08-3.61,5.46,0,7.54l22.24,12.84,96.08-61.36Z" style="fill:#263238"/>
        <path d="M206.24,229.86a14.51,14.51,0,0,0-13.06,0L81,294.63A6.39,6.39,0,0,0,79.28,296a7.1,7.1,0,0,0,1.63,1.27L286.14,415.76a14.45,14.45,0,0,0,13.06,0L411.39,351a6.6,6.6,0,0,0,1.69-1.35,6.55,6.55,0,0,0-1.61-1.29Z" style="fill:#455a64"/>
        <path d="M121.92,259.43,141.8,248c1.19-.68,1.25-1.76.13-2.4a4.59,4.59,0,0,0-4.16.08l-19.88,11.48c-1.19.68-1.25,1.76-.13,2.4A4.59,4.59,0,0,0,121.92,259.43Z" style="fill:#37474f"/>
        <path d="M156.06,239.75a1.23,1.23,0,0,0,0-2.33,4.47,4.47,0,0,0-4,0,1.23,1.23,0,0,0,0,2.33A4.47,4.47,0,0,0,156.06,239.75Z" style="fill:#37474f"/>
        <path d="M164.12,235.09a1.23,1.23,0,0,0,0-2.33,4.47,4.47,0,0,0-4,0,1.23,1.23,0,0,0,0,2.33A4.47,4.47,0,0,0,164.12,235.09Z" style="fill:#37474f"/>
        <path d="M99.64,272.32a1.23,1.23,0,0,0,0-2.33,4.47,4.47,0,0,0-4,0,1.23,1.23,0,0,0,0,2.33A4.47,4.47,0,0,0,99.64,272.32Z" style="fill:#37474f"/>
        <path d="M107.7,267.66a1.23,1.23,0,0,0,0-2.33,4.47,4.47,0,0,0-4,0,1.23,1.23,0,0,0,0,2.33A4.47,4.47,0,0,0,107.7,267.66Z" style="fill:#37474f"/>
        <path d="M135.77,338.8a4.59,4.59,0,0,1,2.15,3.56,1.37,1.37,0,0,1-.59,1.26l-1.51.87a1.57,1.57,0,0,1-1.55-.17l-27.94-16.14a4.59,4.59,0,0,1-2.15-3.56,1.38,1.38,0,0,1,.54-1.23c.27-.17,1.29-.75,1.55-.9a1.59,1.59,0,0,1,1.56.17Z" style="fill:#BA68C8"/>
        <path d="M135.77,338.8a4.59,4.59,0,0,1,2.15,3.56,1.37,1.37,0,0,1-.59,1.26l-1.51.87a1.57,1.57,0,0,1-1.55-.17l-27.94-16.14a4.59,4.59,0,0,1-2.15-3.56,1.38,1.38,0,0,1,.54-1.23c.27-.17,1.29-.75,1.55-.9a1.59,1.59,0,0,1,1.56.17Z" style="opacity:0.4"/>
        <path d="M134.27,339.66l-27.94-16.13c-1.19-.69-2.15-.2-2.15,1.09a4.59,4.59,0,0,0,2.15,3.56l27.94,16.14c1.19.68,2.15.19,2.15-1.09A4.6,4.6,0,0,0,134.27,339.66Z" style="fill:#BA68C8"/>
        <path d="M134.27,339.66l-27.94-16.13c-1.19-.69-2.15-.2-2.15,1.09a4.59,4.59,0,0,0,2.15,3.56l27.94,16.14c1.19.68,2.15.19,2.15-1.09A4.6,4.6,0,0,0,134.27,339.66Z" style="opacity:0.30000000000000004"/>
        <path d="M98.37,317.2a4.62,4.62,0,0,1,2.14,3.57,1.32,1.32,0,0,1-.59,1.25c-.26.14-1.23.73-1.5.88a1.6,1.6,0,0,1-1.55-.18L83.7,315.11a4.59,4.59,0,0,1-2.15-3.56,1.38,1.38,0,0,1,.54-1.23l1.55-.9a1.55,1.55,0,0,1,1.55.18Z" style="fill:#BA68C8"/>
        <path d="M98.37,317.2a4.62,4.62,0,0,1,2.14,3.57,1.32,1.32,0,0,1-.59,1.25c-.26.14-1.23.73-1.5.88a1.6,1.6,0,0,1-1.55-.18L83.7,315.11a4.59,4.59,0,0,1-2.15-3.56,1.38,1.38,0,0,1,.54-1.23l1.55-.9a1.55,1.55,0,0,1,1.55.18Z" style="opacity:0.4"/>
        <path d="M96.87,318.07,83.7,310.46c-1.19-.68-2.15-.2-2.15,1.09a4.59,4.59,0,0,0,2.15,3.56l13.17,7.61c1.19.69,2.15.2,2.15-1.09A4.59,4.59,0,0,0,96.87,318.07Z" style="fill:#BA68C8"/>
        <path d="M96.87,318.07,83.7,310.46c-1.19-.68-2.15-.2-2.15,1.09a4.59,4.59,0,0,0,2.15,3.56l13.17,7.61c1.19.69,2.15.2,2.15-1.09A4.59,4.59,0,0,0,96.87,318.07Z" style="opacity:0.30000000000000004"/>
      </g>
    </g>
    <g id="freepik--Message--inject-5">
      <g id="freepik--message--inject-5">
        <path d="M246.17,362.78v.81a4.49,4.49,0,0,0,2,3.51l43.51,25.12a4.47,4.47,0,0,0,4.06,0l72.05-41.6a4.47,4.47,0,0,0,2-3.51v-.81a4.49,4.49,0,0,0-2-3.51l-43.51-25.12a4.47,4.47,0,0,0-4.06,0l-72.05,41.6A4.47,4.47,0,0,0,246.17,362.78Z" style="fill:#BA68C8"/>
        <path d="M246.17,362.78v.81a4.49,4.49,0,0,0,2,3.51l43.51,25.12a4.47,4.47,0,0,0,4.06,0l72.05-41.6a4.47,4.47,0,0,0,2-3.51v-.81a4.49,4.49,0,0,0-2-3.51l-43.51-25.12a4.47,4.47,0,0,0-4.06,0l-72.05,41.6A4.47,4.47,0,0,0,246.17,362.78Z" style="fill:#BA68C8"/>
        <path d="M367.82,342.79l-43.51-25.12a4.47,4.47,0,0,0-4.06,0L293.74,333v59.74h0a4.09,4.09,0,0,0,2-.49l72.05-41.6a4.47,4.47,0,0,0,2-3.51v-.81A4.49,4.49,0,0,0,367.82,342.79Z" style="fill:#fff;opacity:0.30000000000000004"/>
        <path d="M367.82,342.79l-43.51-25.12a4.47,4.47,0,0,0-4.06,0L293.74,333v59.74h0a4.09,4.09,0,0,0,2-.49l72.05-41.6a4.47,4.47,0,0,0,2-3.51v-.81A4.49,4.49,0,0,0,367.82,342.79Z" style="opacity:0.15"/>
        <path d="M293.74,333l-45.54,26.3a4.47,4.47,0,0,0-2,3.51v.81a4.49,4.49,0,0,0,2,3.51l43.51,25.12a4.07,4.07,0,0,0,2,.49h0Z" style="fill:#fff;opacity:0.30000000000000004"/>
        <path d="M293.74,333l-45.54,26.3a4.47,4.47,0,0,0-2,3.51v.81a4.49,4.49,0,0,0,2,3.51l43.51,25.12a4.07,4.07,0,0,0,2,.49h0Z" style="opacity:0.2"/>
        <path d="M284.74,382.71l-36.54-21.1a1.23,1.23,0,0,1,0-2.34l72.05-41.6a4.47,4.47,0,0,1,4.06,0l43.51,25.12a1.23,1.23,0,0,1,0,2.34L355.87,352l-4.19,2.42-55.91,32.28a4.47,4.47,0,0,1-4.06,0l-3.54-2.05Z" style="fill:#BA68C8"/>
        <path d="M284.74,382.71l-36.54-21.1a1.23,1.23,0,0,1,0-2.34l72.05-41.6a4.47,4.47,0,0,1,4.06,0l43.51,25.12a1.23,1.23,0,0,1,0,2.34L355.87,352l-4.19,2.42-55.91,32.28a4.47,4.47,0,0,1-4.06,0l-3.54-2.05Z" style="fill:#fff;opacity:0.30000000000000004"/>
        <path d="M317.92,347.66l49.9-4.87-49.46,2.8,5.95-27.92a4.23,4.23,0,0,0-2.21-.47L312.77,355l-65.39,5.39a1.35,1.35,0,0,0,.82,1.27L301,358.54l-7.27,28.68L303,358.43h0l9-.53a4.83,4.83,0,0,0,3-1.24h0a4.83,4.83,0,0,0,1.52-2.62Z" style="opacity:0.15"/>
        <path d="M263,359.05l49.79-4.1,1.78-7.14,1-4,6.58-26.64a4.13,4.13,0,0,0-1.86.47l-36,20.8-36,20.8a1.45,1.45,0,0,0-.82,1.07l10-.82Z" style="fill:#fff;opacity:0.30000000000000004"/>
        <path d="M314,311.71c4.55-2.63,11.93-2.63,16.48,0s4.55,6.89,0,9.51-11.93,2.63-16.48,0S309.49,314.34,314,311.71Z" style="fill:#f28f8f"/>
        <path d="M316.52,318a.6.6,0,0,1-.34-.12.21.21,0,0,1-.09-.23l.68-3c0-.07,0-.16.08-.27a.49.49,0,0,1,.25-.27l1.66-1a.72.72,0,0,1,.37-.09.7.7,0,0,1,.37.09l8.83,5.1a.23.23,0,0,1,.15.21.25.25,0,0,1-.15.21l-1.79,1a.72.72,0,0,1-.37.09.7.7,0,0,1-.37-.09l-6-3.44-.4,1.65c0,.08-.08.15-.19.2a.84.84,0,0,1-.39.06Z" style="fill:#fafafa"/>
      </g>
      <path d="M204.64,346.33l32.23-18.6,22,5.45a2.37,2.37,0,0,0,2.47-3.71l-8.26-11.12,32.22-18.61c2.38-1.38,2.38-3.63,0-5L220.85,257.5a9.64,9.64,0,0,0-8.66,0l-80.67,46.62c-2.38,1.37-2.38,3.62,0,5L196,346.33A9.57,9.57,0,0,0,204.64,346.33Z" style="fill:#fafafa"/>
      <path d="M164.85,297.27a25.9,25.9,0,0,1,6.05-2.58,28,28,0,0,1,5.77-1,20.49,20.49,0,0,1,5.15.31,18,18,0,0,1,4.18,1.33q2,1,4.12,2.19t3.78,2.37a8,8,0,0,1,2.3,2.42,4.23,4.23,0,0,1,.55,3A7.09,7.09,0,0,1,195,308.6a17.26,17.26,0,0,1-4.52,3.47,27,27,0,0,1-6,2.61,26.36,26.36,0,0,1-5.74,1,20.48,20.48,0,0,1-5.15-.32,17.79,17.79,0,0,1-4.19-1.32q-2-1-4.11-2.19t-3.79-2.38a7.8,7.8,0,0,1-2.29-2.41,4.25,4.25,0,0,1-.55-3,7.47,7.47,0,0,1,1.71-3.33A16.66,16.66,0,0,1,164.85,297.27Zm20.45,6.78a9.27,9.27,0,0,0-1.27-.83l-1.92-1.11L180.18,301a10.21,10.21,0,0,0-1.43-.73,8.71,8.71,0,0,0-3.49-.78,8.18,8.18,0,0,0-4.28,1.32c-1.59.92-2.36,1.74-2.3,2.47a2.89,2.89,0,0,0,1.36,2,12.65,12.65,0,0,0,1.23.85c.58.37,1.21.75,1.88,1.13s1.32.75,2,1.09a14.68,14.68,0,0,0,1.48.71,8.71,8.71,0,0,0,3.49.78,8.23,8.23,0,0,0,4.28-1.32c1.59-.92,2.36-1.74,2.29-2.48A2.84,2.84,0,0,0,185.3,304.05Zm14.23-24.82a2.42,2.42,0,0,1,.19-1.27,3.45,3.45,0,0,1,1.42-1.22l4.93-2.85a4.46,4.46,0,0,1,1.83-.61,2.71,2.71,0,0,1,1.57.29,1.23,1.23,0,0,1,.27.25,1,1,0,0,1,.18.39l5.67,50.17a2.47,2.47,0,0,1-.2,1.26,3.28,3.28,0,0,1-1.41,1.23l-4.93,2.85a4.38,4.38,0,0,1-1.83.6,2.63,2.63,0,0,1-1.57-.28,1,1,0,0,1-.28-.26,1.17,1.17,0,0,1-.18-.39Zm25.91,11.92a26.38,26.38,0,0,1,6.05-2.59,27.34,27.34,0,0,1,5.77-1,20.49,20.49,0,0,1,5.15.31,18,18,0,0,1,4.18,1.33q2,1,4.12,2.18t3.78,2.38a8,8,0,0,1,2.3,2.41,4.25,4.25,0,0,1,.55,3,7.14,7.14,0,0,1-1.75,3.31,17.48,17.48,0,0,1-4.52,3.47,26.35,26.35,0,0,1-6,2.6,25.59,25.59,0,0,1-5.73,1,20.49,20.49,0,0,1-5.15-.31,18.26,18.26,0,0,1-4.19-1.33c-1.34-.65-2.71-1.37-4.11-2.18s-2.66-1.6-3.79-2.38a8,8,0,0,1-2.29-2.42,4.21,4.21,0,0,1-.55-3,7.47,7.47,0,0,1,1.71-3.33A16.46,16.46,0,0,1,225.44,291.15Zm20.45,6.77a9.47,9.47,0,0,0-1.27-.82L242.7,296l-1.93-1.11a11.83,11.83,0,0,0-1.43-.74,9.05,9.05,0,0,0-3.49-.78,8.42,8.42,0,0,0-4.29,1.32c-1.58.92-2.35,1.75-2.29,2.48a2.89,2.89,0,0,0,1.36,2,13.11,13.11,0,0,0,1.22.86c.59.37,1.22.75,1.89,1.13s1.32.75,2,1.09,1.14.57,1.48.71a9,9,0,0,0,3.49.78,8.35,8.35,0,0,0,4.28-1.33c1.59-.91,2.35-1.74,2.29-2.47A2.88,2.88,0,0,0,245.89,297.92Z" style="fill:#BA68C8"/>
    </g>
  </g>
  <g id="freepik--Megaphone--inject-5">
    <g id="freepik--megaphone--inject-5">
      <path d="M83.75,101.58,96.87,94v60.36c0,2.27,2.63,4.54,2.63,4.54l-13.12,7.58s-2.63-2.28-2.63-4.55Z" style="fill:#37474f"/>
      <path d="M67.8,101.45l5.53,7,0,26.23a39.07,39.07,0,0,1-6,20.75h0l19,11a7,7,0,0,1-2.63-4.55V110.66Z" style="fill:#455a64"/>
      <polygon points="67.33 155.48 67.33 158.51 86.38 169.51 86.38 166.48 67.33 155.48" style="fill:#BA68C8"/>
      <polygon points="86.38 169.51 99.5 161.93 99.5 158.9 86.38 166.48 86.38 169.51" style="fill:#BA68C8"/>
      <polygon points="86.38 169.51 99.5 161.93 99.5 158.9 86.38 166.48 86.38 169.51" style="opacity:0.1"/>
      <path d="M83.15,69.71h0c-2.23-1.34-5.33-1.17-8.76.81l-.13.07C67.48,74.52,62,84,62,91.87V92c0,4,1.48,6.86,3.84,8.08h0l9.93,5.84L92.33,75.13Z" style="fill:#BA68C8"/>
      <path d="M83.15,69.71h0c-2.23-1.34-5.33-1.17-8.76.81l-.13.07C67.48,74.52,62,84,62,91.87V92c0,4,1.48,6.86,3.84,8.08h0l9.93,5.84L92.33,75.13Z" style="fill:#fafafa;opacity:0.8"/>
      <path d="M65.82,100.1h0l9.93,5.84,5.5-10.21L63.12,85.26A21.77,21.77,0,0,0,62,91.87V92C62,96.07,63.46,98.88,65.82,100.1Z" style="fill:#BA68C8;opacity:0.2"/>
      <path d="M104.59,77.26h0c-2.52-1.44-5.92-1.39-9.68.45-.4.19-.8.4-1.2.64s-.95.57-1.41.89A24.08,24.08,0,0,0,90.05,81a30.91,30.91,0,0,0-3.78,3.88,37,37,0,0,0-6.94,13.21,26.07,26.07,0,0,0-1,7c0,4.79,1.64,8.19,4.31,9.85l-9.49-5.47,0,0a12.23,12.23,0,0,1-5.6-10.57,25.66,25.66,0,0,1,.94-6.66,36.71,36.71,0,0,1,7-13.52,30.23,30.23,0,0,1,3.78-3.88A24,24,0,0,1,81.54,73c.47-.32.94-.62,1.41-.89s.81-.44,1.22-.63a12.16,12.16,0,0,1,10.74.18h0l.27.15.34.2Z" style="fill:#BA68C8"/>
      <path d="M73.13,109.41l0,0a12.23,12.23,0,0,1-5.6-10.57,25.66,25.66,0,0,1,.94-6.66l10.84,5.9a26.07,26.07,0,0,0-1,7c0,4.79,1.64,8.19,4.31,9.85Z" style="opacity:0.1"/>
      <path d="M109.11,87.24c0,9.83-6.89,21.77-15.4,26.68-4.27,2.48-8.15,2.69-10.94,1l-.15-.09c-2.67-1.66-4.31-5.06-4.31-9.85,0-9.82,6.89-21.77,15.4-26.68,4.24-2.45,8.09-2.69,10.88-1.09S109.11,82.32,109.11,87.24Z" style="fill:#BA68C8"/>
      <path d="M109.11,87.24c0,9.83-6.89,21.77-15.4,26.68-4.27,2.48-8.15,2.69-10.94,1l-.15-.09c-2.67-1.66-4.31-5.06-4.31-9.85,0-9.82,6.89-21.77,15.4-26.68,4.24-2.45,8.09-2.69,10.88-1.09S109.11,82.32,109.11,87.24Z" style="opacity:0.2"/>
      <path d="M156.34,84.7s-15.54,8-28.81,31a105.2,105.2,0,0,0-6.3,12.82c-6.66,16.35-6.11,27.62-6.11,27.62-4.63-11.35-10.39-23.09-20-32.08a144.75,144.75,0,0,0-11.81-9.88h0c-2.54-1.48-4-4.68-4-9.1A26.75,26.75,0,0,1,81,96a35.21,35.21,0,0,1,2.64-5.64A30.5,30.5,0,0,1,94.2,79.21c3.83-2.21,7.35-2.53,9.89-1.07h0a145,145,0,0,0,14.46,5.29C131.15,87.25,144.2,86.36,156.34,84.7Z" style="fill:#BA68C8"/>
      <path d="M156.34,84.7s-15.54,8-28.81,31a105.2,105.2,0,0,0-6.3,12.82c-6.66,16.35-6.11,27.62-6.11,27.62-4.63-11.35-10.39-23.09-20-32.08a144.75,144.75,0,0,0-11.81-9.88h0c-2.54-1.48-4-4.68-4-9.1A26.75,26.75,0,0,1,81,96a35.21,35.21,0,0,1,2.64-5.64A30.5,30.5,0,0,1,94.2,79.21c3.83-2.21,7.35-2.53,9.89-1.07h0a145,145,0,0,0,14.46,5.29C131.15,87.25,144.2,86.36,156.34,84.7Z" style="fill:#fafafa;opacity:0.8"/>
      <path d="M121.23,128.48c-6.66,16.35-6.11,27.62-6.11,27.62-4.63-11.35-10.39-23.09-20-32.08a144.75,144.75,0,0,0-11.81-9.88h0c-2.54-1.48-4-4.68-4-9.1A26.75,26.75,0,0,1,81,96C92.81,101.88,111.86,112.75,121.23,128.48Z" style="fill:#BA68C8;opacity:0.2"/>
      <path d="M185.62,106.87c0,10.25-3.16,21.46-8.41,31.82h0C170.48,152,160.33,163.8,149,170.36c-20.25,11.69-36.66,2.21-36.66-21.16a61.94,61.94,0,0,1,2.43-16.57A87.18,87.18,0,0,1,136.94,95q2.15-2.11,4.41-4c.63-.52,1.27-1,1.91-1.51h0c.91-.69,1.82-1.35,2.75-2S148,86.28,149,85.71C169.2,74,185.62,83.5,185.62,106.87Z" style="fill:#BA68C8"/>
      <path d="M177.21,138.69C170.48,152,160.33,163.8,149,170.36c-20.25,11.69-36.66,2.21-36.66-21.16a61.94,61.94,0,0,1,2.43-16.57h0c1.37,3,6.29,7.34,8.5,4.31a56,56,0,0,0-2.13,14.7c0,6.72,1.5,12.14,4.33,15.68a12,12,0,0,0,9.86,4.56c4,0,8.68-1.47,13.49-4.25,9.67-5.58,18.56-15.61,24.87-27C173.65,140.66,174.91,141.72,177.21,138.69Z" style="opacity:0.1"/>
      <path d="M183.11,108.18c0,10.32-3.62,22-9.46,32.48-6.31,11.36-15.2,21.39-24.87,27-4.81,2.78-9.47,4.25-13.49,4.25a12,12,0,0,1-9.86-4.56c-2.83-3.54-4.33-9-4.33-15.68a56,56,0,0,1,2.13-14.7c.51-1.9,1.12-3.8,1.81-5.7a82.39,82.39,0,0,1,4.32-9.81l1-2c.59-1.08,1.2-2.15,1.84-3.2a82.82,82.82,0,0,1,7.23-10.17l.09-.1a73.37,73.37,0,0,1,5.47-5.88q2.06-2,4.18-3.66.9-.72,1.8-1.38c.73-.53,1.47-1,2.21-1.53s1.46-.92,2.19-1.35c4.82-2.79,9.49-4.25,13.5-4.25C177.81,88,183.11,95.52,183.11,108.18Z" style="fill:#BA68C8"/>
      <path d="M183.11,108.18c0,10.32-3.62,22-9.46,32.48-6.31,11.36-15.2,21.39-24.87,27-4.81,2.78-9.47,4.25-13.49,4.25a12,12,0,0,1-9.86-4.56c-2.83-3.54-4.33-9-4.33-15.68a56,56,0,0,1,2.13-14.7c.51-1.9,1.12-3.8,1.81-5.7a82.39,82.39,0,0,1,4.32-9.81l1-2c.59-1.08,1.2-2.15,1.84-3.2a82.82,82.82,0,0,1,7.23-10.17l.09-.1a73.37,73.37,0,0,1,5.47-5.88q2.06-2,4.18-3.66.9-.72,1.8-1.38c.73-.53,1.47-1,2.21-1.53s1.46-.92,2.19-1.35c4.82-2.79,9.49-4.25,13.5-4.25C177.81,88,183.11,95.52,183.11,108.18Z" style="opacity:0.30000000000000004"/>
      <path d="M152,113.92l-12.86,24c-3.62-1.36-9.73-3.53-14.71-4.8.2-.64.42-1.26.66-1.9a81.5,81.5,0,0,1,4.32-9.81c.34-.66.69-1.31,1-2,.59-1.08,1.2-2.15,1.84-3.19a82.07,82.07,0,0,1,7.23-10.17.48.48,0,0,0,.09-.11c.39-.46.78-.92,1.17-1.36A83.45,83.45,0,0,0,152,113.92Z" style="fill:#BA68C8"/>
      <g style="opacity:0.6000000000000001">
        <path d="M152,113.92l-12.86,24c-3.62-1.36-9.73-3.53-14.71-4.8.2-.64.42-1.26.66-1.9a81.5,81.5,0,0,1,4.32-9.81c.34-.66.69-1.31,1-2,.59-1.08,1.2-2.15,1.84-3.19a82.07,82.07,0,0,1,7.23-10.17.48.48,0,0,0,.09-.11c.39-.46.78-.92,1.17-1.36A83.45,83.45,0,0,0,152,113.92Z" style="fill:#fafafa"/>
      </g>
      <path d="M140.17,137.87c-2.91,0-4.64-2.35-4.64-6.28v-.12c0-6.18,4.35-13.73,9.71-16.82l.1-.06a8.41,8.41,0,0,1,4.06-1.26c2.9,0,4.64,2.35,4.64,6.29v.12c0,6.18-4.36,13.72-9.71,16.81l-.1.06a8.3,8.3,0,0,1-4.06,1.26Z" style="fill:#BA68C8"/>
      <g style="opacity:0.8">
        <path d="M140.17,137.87c-2.91,0-4.64-2.35-4.64-6.28v-.12c0-6.18,4.35-13.73,9.71-16.82l.1-.06a8.41,8.41,0,0,1,4.06-1.26c2.9,0,4.64,2.35,4.64,6.29v.12c0,6.18-4.36,13.72-9.71,16.81l-.1.06a8.3,8.3,0,0,1-4.06,1.26Z" style="fill:#fafafa"/>
      </g>
      <path d="M154,70.24a2.89,2.89,0,0,1-2.89-2.89v-28a2.89,2.89,0,0,1,5.78,0v28A2.89,2.89,0,0,1,154,70.24Z" style="fill:#e0e0e0"/>
      <path d="M128.59,77.06a2.88,2.88,0,0,1-2.5-1.44l-14-24.22a2.89,2.89,0,0,1,5-2.9l14,24.22a2.89,2.89,0,0,1-2.51,4.34Z" style="fill:#e0e0e0"/>
      <path d="M102.12,211.84a2.9,2.9,0,0,1-2.5-4.34l14-24.22a2.89,2.89,0,1,1,5,2.89l-14,24.22A2.9,2.9,0,0,1,102.12,211.84Z" style="fill:#e0e0e0"/>
      <path d="M154,215.58a2.89,2.89,0,0,1-2.89-2.89v-28a2.89,2.89,0,1,1,5.78,0v28A2.89,2.89,0,0,1,154,215.58Z" style="fill:#e0e0e0"/>
      <path d="M193.48,189.44A2.89,2.89,0,0,1,191,188l-14-24.22a2.89,2.89,0,0,1,5-2.89l14,24.22a2.9,2.9,0,0,1-2.5,4.34Z" style="fill:#e0e0e0"/>
      <path d="M222.33,160.57a2.9,2.9,0,0,1-1.44-.38l-24.22-14a2.89,2.89,0,1,1,2.9-5l24.21,14a2.89,2.89,0,0,1-1.45,5.39Z" style="fill:#e0e0e0"/>
      <path d="M232.9,121.14h-28a2.89,2.89,0,1,1,0-5.78h28a2.89,2.89,0,1,1,0,5.78Z" style="fill:#e0e0e0"/>
      <path d="M198.12,95.69a2.89,2.89,0,0,1-1.45-5.4l24.22-14a2.89,2.89,0,1,1,2.89,5l-24.21,14A2.85,2.85,0,0,1,198.12,95.69Z" style="fill:#e0e0e0"/>
      <path d="M179.49,77.06A2.89,2.89,0,0,1,177,72.72L191,48.5a2.89,2.89,0,0,1,5,2.9L182,75.62A2.88,2.88,0,0,1,179.49,77.06Z" style="fill:#e0e0e0"/>
    </g>
  </g>
  <g id="freepik--Graphics--inject-15" transform="matrix(1, 0, 0, 1, 196.87828063964838, 88.01282501220702)">
    <rect x="195.34" y="94.15" width="24.24" height="5.59" style="fill:#BA68C8"/>
    <rect x="195.34" y="102.23" width="15.93" height="5.59" style="fill:#BA68C8"/>
    <rect x="195.34" y="110.31" width="9.17" height="5.59" style="fill:#BA68C8"/>
    <rect x="195.34" y="94.15" width="24.24" height="5.59" style="opacity: 0.2; isolation: isolate; fill: rgb(186, 104, 200);"/>
    <rect x="195.34" y="102.23" width="15.93" height="5.59" style="opacity: 0.2; isolation: isolate; fill: rgb(186, 104, 200);"/>
    <rect x="195.34" y="110.31" width="9.17" height="5.59" style="opacity: 0.2; isolation: isolate; fill: rgb(186, 104, 200);"/>
    <rect x="153.25" y="156.07" width="8.22" height="16.84" style="fill:#BA68C8"/>
    <rect x="165.12" y="161.86" width="8.22" height="11.06" style="fill:#BA68C8"/>
    <rect x="177" y="166.55" width="8.22" height="6.37" style="fill:#BA68C8"/>
    <rect x="153.25" y="156.07" width="8.22" height="16.84" style="opacity: 0.2; isolation: isolate; fill: rgb(186, 104, 200);"/>
    <rect x="165.12" y="161.86" width="8.22" height="11.06" style="opacity: 0.2; isolation: isolate; fill: rgb(186, 104, 200);"/>
    <rect x="177" y="166.55" width="8.22" height="6.37" style="opacity: 0.2; isolation: isolate; fill: rgb(186, 104, 200);"/>
    <path d="M250.94,185.66H151.41A10.39,10.39,0,0,1,141,175.27V93.1a10.41,10.41,0,0,1,10.39-10.39h99.53A10.4,10.4,0,0,1,261.33,93.1v82.17A10.39,10.39,0,0,1,250.94,185.66Zm-99.53-102a9.5,9.5,0,0,0-9.48,9.48v82.17a9.5,9.5,0,0,0,9.48,9.48h99.53a9.5,9.5,0,0,0,9.48-9.48V93.1a9.5,9.5,0,0,0-9.48-9.48Z" style="fill:#263238"/>
    <rect x="214.17" y="156.53" width="35.49" height="0.91" style="fill:#263238"/>
    <rect x="214.17" y="160.34" width="35.49" height="0.91" style="fill:#263238"/>
    <rect x="214.17" y="164.14" width="35.49" height="0.91" style="fill:#263238"/>
    <rect x="214.17" y="167.94" width="35.49" height="0.91" style="fill:#263238"/>
    <rect x="214.17" y="171.74" width="35.49" height="0.91" style="fill:#263238"/>
    <rect x="152.16" y="94.53" width="35.49" height="0.91" style="fill:#263238"/>
    <rect x="152.16" y="98.33" width="35.49" height="0.91" style="fill:#263238"/>
    <rect x="152.16" y="102.13" width="35.49" height="0.91" style="fill:#263238"/>
    <rect x="152.16" y="105.93" width="35.49" height="0.91" style="fill:#263238"/>
    <rect x="152.16" y="109.73" width="35.49" height="0.91" style="fill:#263238"/>
    <path d="M242.65,125.23l6.36,3.34-.73-17.94-15.17,9.6,6.36,3.33-4.79,9.11h0a3.78,3.78,0,0,0-2.33.8l-8.45-3.91v-.05a3.88,3.88,0,0,0-7.75-.38h0a2.41,2.41,0,0,0,0,.38,4.05,4.05,0,0,0,.35,1.61l-11,12a3.7,3.7,0,0,0-1.09-.17,2.76,2.76,0,0,0-.57.06L188,122.9a3.87,3.87,0,0,0-7.08-3.11,3.71,3.71,0,0,0-.33,1.54,4.29,4.29,0,0,0,.2,1.17L162.74,141a3.87,3.87,0,1,0,2.31,5h0a4,4,0,0,0,.23-1.33,3.38,3.38,0,0,0-.13-.94L183.4,125a3.53,3.53,0,0,0,1.11.18,3.42,3.42,0,0,0,.71-.07l15.75,20a3.91,3.91,0,1,0,6.88,3.73,3.83,3.83,0,0,0,.47-1.65,2.54,2.54,0,0,0,0-.39,4,4,0,0,0-.2-1.19l11.26-12.26a3.57,3.57,0,0,0,.65.06,3.87,3.87,0,0,0,2.16-.66l8.6,4a3.87,3.87,0,1,0,7.73-.37,3.83,3.83,0,0,0-.69-2Z" style="fill:#263238"/>
  </g>
</svg>